<svg width="200" height="60" viewBox="0 0 200 60" fill="none" xmlns="http://www.w3.org/2000/svg">
<path d="M0 0H200V60H0V0Z" fill="black"/>
<path d="M44.3342 29.4525C44.2892 24.618 48.2987 22.2675 48.4817 22.1565C46.2122 18.852 42.6917 18.4005 41.4572 18.3645C38.5022 18.054 35.6342 20.13 34.1297 20.13C32.5937 20.13 30.2747 18.3945 27.7772 18.4455C24.5612 18.495 21.5537 20.3535 19.9037 23.2395C16.4987 29.124 19.0397 37.7715 22.3007 42.5295C23.9327 44.8575 25.8392 47.4585 28.3337 47.367C30.7757 47.2665 31.6877 45.813 34.6337 45.813C37.5527 45.813 38.4092 47.367 40.9547 47.3085C43.5752 47.2665 45.2252 44.9685 46.7987 42.618C48.6842 39.948 49.4417 37.3185 49.4717 37.1835C49.4102 37.1625 44.3837 35.2485 44.3342 29.4525Z" fill="white"/>
<path fill-rule="evenodd" clip-rule="evenodd" d="M42.6169 9.99902C42.8659 12.264 41.9674 14.4945 40.6549 16.134C39.2839 17.748 37.0924 18.9825 34.9579 18.8235C34.6774 16.6455 35.7589 14.3295 36.9709 12.9165C38.3389 11.313 40.7164 10.0845 42.6169 9.99902ZM76.6429 48.2955H80.0554L73.5859 28.3335H69.6109L63.1759 48.2955H66.4969L68.2789 42.4305H74.7739L76.6429 48.2955ZM74.2099 39.9705L72.5209 34.7595C72.3409 34.227 72.0064 32.973 71.5129 30.999H71.4529C71.1522 32.2567 70.8346 33.5103 70.5004 34.7595L68.8414 39.972H74.2084L74.2099 39.9705ZM95.0209 46.452C96.3469 45.0315 97.0084 43.0965 97.0084 40.65V40.6485C97.0084 38.457 96.4414 36.69 95.3029 35.346C94.1659 34.0035 92.7469 33.333 91.0459 33.333C88.8709 33.333 87.2494 34.191 86.1814 35.91H86.1214L85.9429 33.6285H83.1244C83.2024 35.2068 83.2424 36.7868 83.2444 38.367V53.8875H86.4469V46.305H86.5069C87.3379 47.667 88.7029 48.348 90.6019 48.348C92.3614 48.348 93.8359 47.7165 95.0209 46.452ZM93.7459 40.7655C93.7459 39.3645 93.4309 38.2095 92.7964 37.3005C92.1034 36.3525 91.1734 35.8785 90.0079 35.8785C89.2174 35.8785 88.4989 36.1425 87.8584 36.663C87.2149 37.188 86.7934 37.8735 86.5984 38.7225C86.4979 39.1185 86.4484 39.4425 86.4484 39.6975V42.0975C86.4484 43.1445 86.7709 44.028 87.4129 44.7495C88.0564 45.471 88.8919 45.831 89.9179 45.831C91.1254 45.831 92.0644 45.366 92.7364 44.439C93.4099 43.5105 93.7459 42.2865 93.7459 40.7655ZM111.644 46.452C112.97 45.0315 113.633 43.0965 113.633 40.65V40.6485C113.633 38.457 113.063 36.69 111.929 35.346C110.79 34.0035 109.37 33.333 107.67 33.333C105.494 33.333 103.872 34.191 102.807 35.91H102.747L102.567 33.6285H99.7504C99.8279 35.2068 99.8674 36.7868 99.8689 38.367V53.8875H103.073V46.305H103.133C103.961 47.667 105.326 48.348 107.225 48.348C108.984 48.348 110.459 47.7165 111.644 46.452ZM110.369 40.7655C110.369 39.3645 110.052 38.2095 109.418 37.3005C108.726 36.3525 107.798 35.8785 106.631 35.8785C105.84 35.8785 105.123 36.1425 104.48 36.663C103.836 37.188 103.418 37.8735 103.22 38.7225C103.124 39.1185 103.073 39.4425 103.073 39.6975V42.0975C103.073 43.1445 103.394 44.028 104.033 44.7495C104.678 45.4695 105.512 45.831 106.542 45.831C107.75 45.831 108.687 45.366 109.359 44.439C110.033 43.5105 110.369 42.2865 110.369 40.7655ZM130.328 45.4695C131.514 44.403 132.105 43.0215 132.105 41.3235C132.105 39.9435 131.7 38.787 130.89 37.863C130.079 36.936 128.814 36.126 127.094 35.436C125.687 34.8825 124.718 34.3695 124.185 33.8955C123.572 33.381 123.267 32.73 123.267 31.941C123.267 31.2285 123.534 30.627 124.068 30.1335C124.698 29.5815 125.58 29.304 126.705 29.304C128.132 29.304 129.405 29.61 130.533 30.222L131.333 27.615C130.127 26.982 128.616 26.667 126.797 26.667C124.755 26.667 123.125 27.1905 121.901 28.2375C120.674 29.286 120.06 30.6315 120.06 32.2725C120.06 34.7835 121.809 36.693 125.31 37.995C126.596 38.472 127.517 38.985 128.069 39.54C128.624 40.0935 128.898 40.776 128.898 41.586C128.898 42.495 128.564 43.224 127.893 43.767C127.218 44.31 126.279 44.583 125.073 44.583C123.441 44.5961 121.838 44.1546 120.443 43.308L119.7 45.972C121.005 46.803 122.73 47.217 124.883 47.217C127.212 47.217 129.026 46.635 130.328 45.4695ZM141.78 35.9865H138.249V42.975C138.249 44.7525 138.872 45.6405 140.118 45.6405C140.691 45.6405 141.165 45.591 141.542 45.492L141.63 47.9205C141 48.156 140.168 48.2745 139.14 48.2745C137.874 48.2745 136.886 47.889 136.172 47.1195C135.461 46.3485 135.104 45.0555 135.104 43.239V35.9835H133.001V33.5835H135.104V30.948L138.249 30V33.5835H141.78V35.9865ZM156.86 46.155C158.124 44.7345 158.76 42.918 158.76 40.7055H158.759C158.759 38.553 158.147 36.7965 156.917 35.436C155.633 34.0335 153.93 33.333 151.815 33.333C149.619 33.333 147.873 34.044 146.58 35.466C145.283 36.8865 144.638 38.7135 144.638 40.944C144.638 43.0755 145.266 44.844 146.522 46.2465C147.777 47.646 149.462 48.3465 151.577 48.3465C153.773 48.3465 155.534 47.6175 156.86 46.155ZM155.436 40.8098C155.436 39.4811 155.151 38.3428 154.577 37.3935C153.905 36.2445 152.945 35.6715 151.701 35.6715C150.413 35.6715 149.436 36.246 148.763 37.3935C148.188 38.3445 147.903 39.501 147.903 40.869C147.903 42.1965 148.188 43.335 148.763 44.283C149.456 45.432 150.423 46.005 151.673 46.005C152.895 46.005 153.855 45.42 154.548 44.253C155.138 43.2857 155.436 42.1355 155.436 40.8098ZM167.966 36.3525C168.304 36.3513 168.642 36.3809 168.975 36.441H168.977V33.393C168.738 33.354 168.471 33.333 168.176 33.333C167.345 33.333 166.574 33.5895 165.86 34.104C165.129 34.6755 164.597 35.439 164.259 36.384H164.169L164.052 33.6315H161.262C161.346 35.14 161.386 36.6507 161.382 38.1615L161.352 48.0225H164.555V40.47C164.555 39.3255 164.822 38.3775 165.356 37.6275C165.968 36.777 166.841 36.3525 167.966 36.3525ZM182.388 40.1722C182.388 40.7449 182.351 41.2277 182.271 41.622H172.661C172.698 43.044 173.163 44.1315 174.056 44.8815C174.866 45.552 175.913 45.888 177.198 45.888C178.622 45.888 179.919 45.663 181.086 45.207L181.589 47.427C180.224 48.021 178.614 48.3165 176.756 48.3165C174.521 48.3165 172.766 47.6595 171.488 46.347C170.213 45.0345 169.575 43.272 169.575 41.061C169.575 38.8905 170.169 37.083 171.357 35.6415C172.602 34.1025 174.282 33.333 176.397 33.333C178.476 33.333 180.048 34.1025 181.116 35.643C181.962 36.8639 182.388 38.3755 182.388 40.1722ZM178.712 36.8835C179.145 37.575 179.354 38.394 179.333 39.342V39.3405H172.661C172.758 38.3745 173.076 37.545 173.609 36.855C174.26 35.985 175.112 35.55 176.159 35.55C177.305 35.55 178.157 35.994 178.712 36.8835ZM72.9124 14.745C72.9124 16.5105 72.3814 17.8395 71.3224 18.732C70.3414 19.5555 68.9464 19.968 67.1404 19.968C66.2464 19.968 65.4799 19.929 64.8379 19.851V10.2045C65.6749 10.0695 66.5764 10.0005 67.5499 10.0005C69.2704 10.0005 70.5664 10.374 71.4409 11.121C72.4204 11.9655 72.9109 13.173 72.9109 14.745H72.9124ZM70.3414 12.1545C70.9487 12.7664 71.2517 13.6437 71.2519 14.7878C71.2517 16.0699 70.9202 17.0447 70.2664 17.712C69.6109 18.3825 68.6809 18.717 67.4764 18.717C66.9604 18.717 66.6064 18.7035 66.4129 18.6735V11.34C66.7624 11.271 67.1854 11.238 67.6804 11.238C68.8474 11.238 69.7339 11.544 70.3414 12.1545ZM81.7504 16.9545C81.7504 18.042 81.4384 18.933 80.8159 19.632C80.1649 20.3505 79.3009 20.709 78.2209 20.709C77.1829 20.709 76.3549 20.364 75.7369 19.674C75.1219 18.987 74.8129 18.1185 74.8129 17.0715C74.8129 15.9765 75.1294 15.0765 75.7669 14.3805C76.4044 13.683 77.2609 13.3335 78.3394 13.3335C79.3789 13.3335 80.2144 13.677 80.8459 14.3655C81.4474 15.0345 81.7489 15.8985 81.7489 16.9545H81.7504ZM79.6954 15.3255C79.9759 15.7935 80.1154 16.353 80.1154 17.0055H80.1169C80.1169 17.658 79.9714 18.222 79.6789 18.6975C79.3399 19.272 78.8674 19.5585 78.2674 19.5585C77.6539 19.5585 77.1799 19.2765 76.8379 18.7125C76.5574 18.246 76.4164 17.6865 76.4164 17.034C76.4164 16.362 76.5559 15.792 76.8379 15.327C77.1694 14.763 77.6494 14.481 78.2824 14.481C78.8929 14.481 79.3639 14.763 79.6954 15.3255ZM93.3874 13.3335L91.1704 20.4045H89.7289L88.8109 17.334C88.5819 16.5828 88.3916 15.8203 88.2409 15.0495H88.2124C88.0763 15.8235 87.8859 16.5869 87.6424 17.334L86.6674 20.4045H85.2094L83.1244 13.3335H84.7444L85.5439 16.6935C85.7389 17.4885 85.8979 18.2475 86.0239 18.9645H86.0539C86.1709 18.3735 86.3644 17.6205 86.6389 16.71L87.6439 13.335H88.9264L89.8894 16.638C90.1219 17.4435 90.3109 18.219 90.4564 18.966H90.5014C90.6064 18.2385 90.7684 17.463 90.9814 16.638L91.8409 13.335H93.3859V13.3335H93.3874ZM101.058 20.553H102.633V20.5515V16.3155C102.633 15.2775 102.362 14.496 101.819 13.9725C101.381 13.545 100.83 13.332 100.169 13.332C99.6469 13.332 99.1684 13.4655 98.7424 13.728C98.3824 13.956 98.1094 14.238 97.9264 14.583H97.8829L97.8094 13.476H96.4249C96.4624 14.2065 96.4819 14.88 96.4819 15.501V20.55H98.0569V16.3575C98.0505 15.9137 98.2063 15.4828 98.4949 15.1455C98.7743 14.808 99.1938 14.6182 99.6319 14.631C100.584 14.631 101.058 15.255 101.058 16.503V20.553ZM106.311 20.316H104.738V10.0005H106.311V20.316ZM114.066 19.632C114.689 18.933 114.999 18.042 114.999 16.9545C114.999 15.8985 114.696 15.0345 114.096 14.3655C113.462 13.677 112.629 13.3335 111.587 13.3335C110.51 13.3335 109.653 13.683 109.017 14.3805C108.38 15.0765 108.063 15.9765 108.063 17.0715C108.063 18.1185 108.371 18.987 108.987 19.674C109.602 20.364 110.43 20.709 111.471 20.709C112.548 20.709 113.414 20.3505 114.066 19.632ZM113.364 17.0055C113.364 16.353 113.223 15.7935 112.943 15.3255C112.613 14.763 112.142 14.481 111.533 14.481C110.898 14.481 110.417 14.763 110.088 15.327C109.806 15.792 109.665 16.362 109.665 17.034C109.665 17.6865 109.808 18.246 110.088 18.7125C110.429 19.2765 110.904 19.5585 111.516 19.5585C112.118 19.5585 112.589 19.272 112.926 18.6975C113.22 18.222 113.364 17.658 113.364 17.0055ZM122.438 20.5485H123.852C123.785 20.1315 123.75 19.5675 123.75 18.8625V16.2585C123.75 14.3085 122.822 13.3335 120.971 13.3335C120.011 13.3335 119.199 13.5375 118.541 13.944L118.862 14.976C119.393 14.628 120.009 14.4525 120.708 14.4525C121.689 14.4525 122.178 14.9175 122.178 15.849V15.981C120.867 15.9705 119.849 16.194 119.124 16.6485C118.398 17.106 118.037 17.7645 118.037 18.6285C118.023 19.1633 118.222 19.6817 118.592 20.0685C119 20.4945 119.54 20.709 120.209 20.709C121.104 20.709 121.794 20.3835 122.277 19.734H122.321L122.438 20.5485ZM122.217 18.1185V17.028C120.48 16.998 119.612 17.4735 119.612 18.453C119.612 18.822 119.711 19.098 119.915 19.2825C120.126 19.4694 120.401 19.5681 120.683 19.5585C121.028 19.5585 121.352 19.449 121.647 19.2315C122.009 18.9774 122.223 18.5609 122.217 18.1185ZM130.052 20.316H131.448C131.411 19.734 131.393 19.0995 131.393 18.411V10.0005H129.816V14.0595H129.786C129.408 13.419 128.742 13.0995 127.791 13.0995C126.926 13.0995 126.2 13.4295 125.606 14.0895C124.992 14.7975 124.688 15.7245 124.688 16.869C124.688 17.9355 124.968 18.804 125.532 19.4715C126.096 20.142 126.806 20.4765 127.659 20.4765C128.727 20.4765 129.488 20.0445 129.935 19.1805H129.977L130.052 20.316ZM129.816 17.334V16.155C129.846 15.6037 129.62 15.0695 129.203 14.7075C128.913 14.4524 128.538 14.3149 128.151 14.322C127.563 14.322 127.104 14.5545 126.765 15.021C126.431 15.486 126.261 16.083 126.261 16.8105C126.261 17.5095 126.422 18.0765 126.744 18.513C127.086 18.978 127.545 19.2105 128.121 19.2105C128.637 19.2105 129.051 19.0155 129.365 18.6285C129.668 18.2666 129.829 17.8062 129.816 17.334ZM143.991 19.632C144.614 18.933 144.924 18.042 144.924 16.9545C144.924 15.8985 144.621 15.0345 144.021 14.3655C143.39 13.677 142.554 13.3335 141.515 13.3335C140.435 13.3335 139.578 13.683 138.942 14.3805C138.305 15.0765 137.988 15.9765 137.988 17.0715C137.988 18.1185 138.296 18.987 138.912 19.674C139.53 20.364 140.358 20.709 141.396 20.709C142.476 20.709 143.339 20.3505 143.991 19.632ZM143.292 17.0055C143.292 16.353 143.151 15.7935 142.871 15.3255C142.539 14.763 142.07 14.481 141.456 14.481C140.826 14.481 140.346 14.763 140.013 15.327C139.731 15.792 139.59 16.362 139.59 17.034C139.59 17.6865 139.733 18.246 140.013 18.7125C140.354 19.2765 140.829 19.5585 141.441 19.5585C142.043 19.5585 142.517 19.272 142.856 18.6975C143.145 18.222 143.292 17.658 143.292 17.0055ZM152.595 20.553H154.17L154.169 20.5515V16.3155C154.169 15.2775 153.899 14.496 153.353 13.9725C152.916 13.545 152.367 13.332 151.707 13.332C151.203 13.3264 150.707 13.4637 150.278 13.728C149.936 13.9369 149.655 14.2317 149.462 14.583H149.42L149.345 13.476H147.963C148.001 14.2065 148.019 14.88 148.019 15.501V20.55H149.594V16.3575C149.587 15.9135 149.743 15.4823 150.032 15.1455C150.311 14.8079 150.73 14.618 151.167 14.631C152.121 14.631 152.595 15.255 152.595 16.503V20.553ZM163.914 14.6055H162.18V18.0405C162.18 18.9135 162.488 19.35 163.098 19.35C163.38 19.35 163.614 19.326 163.799 19.275L163.841 20.469C163.529 20.586 163.121 20.6445 162.617 20.6445C161.996 20.6445 161.511 20.4555 161.162 20.0775C160.809 19.6995 160.637 19.0635 160.637 18.171V14.6055H159.6V13.428H160.635V12.132L162.179 11.667V13.425H163.913V14.604L163.914 14.6055ZM170.826 20.316H172.401V16.11C172.401 15.0645 172.134 14.2725 171.6 13.74C171.173 13.3125 170.633 13.0995 169.98 13.0995C169.059 13.0995 168.348 13.4865 167.853 14.2605H167.823V10.0005H166.25V20.3145H167.823V16.062C167.823 15.84 167.85 15.651 167.897 15.4965C168.17 14.7615 168.669 14.394 169.4 14.394C170.351 14.394 170.826 15.0285 170.826 16.296V20.316ZM180.86 16.692C180.86 16.974 180.839 17.211 180.8 17.4045H176.079C176.1 18.1035 176.325 18.6345 176.762 19.005C177.162 19.335 177.677 19.5 178.308 19.5C179.007 19.5 179.643 19.389 180.218 19.1655L180.464 20.2575C179.793 20.5485 179.003 20.6925 178.088 20.6925C176.991 20.6925 176.127 20.3715 175.502 19.7265C174.873 19.0815 174.563 18.216 174.563 17.13C174.563 16.0635 174.852 15.1755 175.437 14.4675C176.048 13.7115 176.871 13.3335 177.912 13.3335C178.932 13.3335 179.705 13.7115 180.228 14.4675C180.651 15.0675 180.858 15.81 180.858 16.692H180.86ZM179.052 15.078C179.273 15.4408 179.379 15.8616 179.357 16.2855H176.079C176.117 15.8424 176.279 15.4189 176.546 15.063C176.831 14.6542 177.3 14.4141 177.798 14.4225C178.362 14.4225 178.779 14.6415 179.052 15.078Z" fill="white"/>
</svg>
