<svg width="200" height="60" viewBox="0 0 200 60" fill="none" xmlns="http://www.w3.org/2000/svg">
<path d="M0 0H200V60H0V0Z" fill="black"/>
<path fill-rule="evenodd" clip-rule="evenodd" d="M104.871 10C103.637 10 102.455 10.4728 101.588 11.3131C99.8277 13.1051 99.8277 15.9007 101.588 17.6927C103.402 19.4284 106.34 19.4284 108.154 17.6927C109.921 15.9036 109.921 13.1022 108.154 11.3131C107.286 10.4728 106.104 10 104.871 10ZM67.9601 17.7213C68.7261 16.9523 69.1303 15.9163 69.0789 14.8541C69.0789 14.6334 69.0594 14.4126 69.019 14.1947H64.677V15.2269H67.9302C67.9077 15.8777 67.643 16.4985 67.1838 16.9759C66.0288 18.0572 64.261 18.2623 62.8702 17.4762C61.4832 16.6866 60.815 15.108 61.236 13.6153C61.6569 12.1227 63.0639 11.0817 64.677 11.0694C65.6144 11.0205 66.5211 11.3976 67.124 12.0873L67.9152 11.3275C67.5338 10.906 67.0522 10.5763 66.5123 10.367C65.0652 9.77844 63.4067 9.92503 62.0963 10.7572C60.786 11.5894 59.9986 12.9963 60 14.5029C59.9984 15.6934 60.4903 16.8357 61.3674 17.6785C62.2445 18.5214 63.435 18.9957 64.677 18.9973C65.911 19.0403 67.1046 18.5758 67.9601 17.7213ZM71.8833 11.2701H75.9127V10.2093H70.6897V18.8109H75.9127V17.75H71.8833V15.0262H75.5537V13.994H71.8833V11.2701ZM80.8051 18.8109H79.6564V11.2701H77.1511V10.2093H83.3732V11.2701H80.8649V18.8109H80.8051ZM87.7586 10.2093V18.8109H88.9073V10.2093H87.7586ZM93.9941 18.8109H92.8604V11.2701H90.3536V10.2093H96.5009V11.2701H93.9941V18.8109ZM102.44 16.9759C103.783 18.2619 105.96 18.2619 107.303 16.9759C108.623 15.5756 108.623 13.4445 107.303 12.0443C105.959 10.7573 103.782 10.7573 102.439 12.0443C101.118 13.4445 101.118 15.5756 102.439 16.9759H102.44ZM111.093 10.2093V18.8109H111.108H112.257V11.8006L116.806 18.8109H118V10.2093H116.851V16.9042L112.494 10.2093H111.093Z" fill="white"/>
<path d="M101.588 11.3131L101.414 11.1335L101.409 11.138L101.588 11.3131ZM101.588 17.6927L101.409 17.8679L101.415 17.8733L101.588 17.6927ZM108.154 17.6927L108.327 17.8734L108.332 17.8684L108.154 17.6927ZM108.154 11.3131L108.332 11.1374L108.328 11.1336L108.154 11.3131ZM69.0789 14.8541H68.8286L68.8292 14.8662L69.0789 14.8541ZM67.9601 17.7213L68.1367 17.8982L68.1372 17.8978L67.9601 17.7213ZM69.019 14.1947L69.2649 14.1491L69.227 13.9447H69.019V14.1947ZM64.677 14.1947V13.9447H64.427V14.1947H64.677ZM64.677 15.2269H64.427V15.4769H64.677V15.2269ZM67.9302 15.2269L68.18 15.2355L68.1889 14.9769H67.9302V15.2269ZM67.1838 16.9759L67.3549 17.1586L67.364 17.1492L67.1838 16.9759ZM62.8702 17.4762L62.7466 17.6935L62.7472 17.6938L62.8702 17.4762ZM61.236 13.6153L60.9953 13.5475L61.236 13.6153ZM64.677 11.0694L64.6789 11.3197L64.6901 11.3191L64.677 11.0694ZM67.124 12.0873L66.9358 12.2518L67.1082 12.4491L67.2972 12.2676L67.124 12.0873ZM67.9152 11.3275L68.0884 11.5078L68.2634 11.3397L68.1006 11.1597L67.9152 11.3275ZM66.5123 10.367L66.4181 10.5986L66.4219 10.6001L66.5123 10.367ZM62.0963 10.7572L62.2304 10.9683L62.0963 10.7572ZM60 14.5029L60.25 14.5032L60.25 14.5027L60 14.5029ZM61.3674 17.6785L61.5406 17.4983L61.3674 17.6785ZM64.677 18.9973L64.6858 18.7473L64.6773 18.7473L64.677 18.9973ZM75.9127 11.2701V11.5201H76.1627V11.2701H75.9127ZM71.8833 11.2701V11.0201H71.6333V11.2701H71.8833ZM75.9127 10.2093H76.1627V9.95926H75.9127V10.2093ZM70.6897 10.2093V9.95926H70.4397V10.2093H70.6897ZM70.6897 18.8109H70.4397V19.0609H70.6897V18.8109ZM75.9127 18.8109V19.0609H76.1627V18.8109H75.9127ZM75.9127 17.75H76.1627V17.5H75.9127V17.75ZM71.8833 17.75H71.6333V18H71.8833V17.75ZM71.8833 15.0262V14.7762H71.6333V15.0262H71.8833ZM75.5537 15.0262V15.2762H75.8037V15.0262H75.5537ZM75.5537 13.994H75.8037V13.744H75.5537V13.994ZM71.8833 13.994H71.6333V14.244H71.8833V13.994ZM79.6564 18.8109H79.4064V19.0609H79.6564V18.8109ZM79.6564 11.2701H79.9064V11.0201H79.6564V11.2701ZM77.1511 11.2701H76.9011V11.5201H77.1511V11.2701ZM77.1511 10.2093V9.95926H76.9011V10.2093H77.1511ZM83.3732 10.2093H83.6232V9.95926H83.3732V10.2093ZM83.3732 11.2701V11.5201H83.6232V11.2701H83.3732ZM80.8649 11.2701V11.0201H80.6149V11.2701H80.8649ZM80.8649 18.8109V19.0609H81.1149V18.8109H80.8649ZM87.7586 18.8109H87.5086V19.0609H87.7586V18.8109ZM87.7586 10.2093V9.95926H87.5086V10.2093H87.7586ZM88.9073 18.8109V19.0609H89.1573V18.8109H88.9073ZM88.9073 10.2093H89.1573V9.95926H88.9073V10.2093ZM92.8604 18.8109H92.6104V19.0609H92.8604V18.8109ZM93.9941 18.8109V19.0609H94.2441V18.8109H93.9941ZM92.8604 11.2701H93.1104V11.0201H92.8604V11.2701ZM90.3536 11.2701H90.1036V11.5201H90.3536V11.2701ZM90.3536 10.2093V9.95926H90.1036V10.2093H90.3536ZM96.5009 10.2093H96.7509V9.95926H96.5009V10.2093ZM96.5009 11.2701V11.5201H96.7509V11.2701H96.5009ZM93.9941 11.2701V11.0201H93.7441V11.2701H93.9941ZM107.303 16.9759L107.476 17.1567L107.485 17.1474L107.303 16.9759ZM102.44 16.9759L102.613 16.7953L102.541 16.7259H102.44V16.9759ZM107.303 12.0443L107.485 11.8725L107.476 11.8638L107.303 12.0443ZM102.439 12.0443L102.266 11.8635L102.257 11.8728L102.439 12.0443ZM102.439 16.9759L102.257 17.1474L102.331 17.2259H102.439V16.9759ZM111.093 18.8109H110.843V19.0609H111.093V18.8109ZM111.093 10.2093V9.95926H110.843V10.2093H111.093ZM112.257 18.8109V19.0609H112.507V18.8109H112.257ZM112.257 11.8006L112.466 11.6645L112.007 10.9562V11.8006H112.257ZM116.806 18.8109L116.597 18.947L116.671 19.0609H116.806V18.8109ZM118 18.8109V19.0609H118.25V18.8109H118ZM118 10.2093H118.25V9.95926H118V10.2093ZM116.851 10.2093V9.95926H116.601V10.2093H116.851ZM116.851 16.9042L116.642 17.0406L117.101 17.7467V16.9042H116.851ZM112.494 10.2093L112.704 10.0729L112.63 9.95926H112.494V10.2093ZM101.762 11.4927C102.581 10.6986 103.701 10.25 104.871 10.25V9.75C103.574 9.75 102.329 10.247 101.414 11.1336L101.762 11.4927ZM101.766 17.5175C100.102 15.8228 100.102 13.183 101.766 11.4883L101.409 11.138C99.5538 13.0272 99.5538 15.9787 101.409 17.8679L101.766 17.5175ZM107.981 17.512C106.264 19.1553 103.478 19.1553 101.761 17.512L101.415 17.8733C103.326 19.7015 106.416 19.7015 108.327 17.8733L107.981 17.512ZM107.976 11.4888C109.647 13.1805 109.647 15.8253 107.976 17.517L108.332 17.8684C110.195 15.9819 110.195 13.0239 108.332 11.1374L107.976 11.4888ZM104.871 10.25C106.041 10.25 107.16 10.6986 107.98 11.4927L108.328 11.1336C107.413 10.247 106.168 9.75 104.871 9.75V10.25ZM68.8292 14.8662C68.8771 15.8565 68.5005 16.8245 67.783 17.5449L68.1372 17.8978C68.9517 17.08 69.3835 15.976 69.3286 14.842L68.8292 14.8662ZM68.7732 14.2402C68.8107 14.4425 68.8289 14.648 68.8289 14.8541H69.3289C69.3289 14.6187 69.3081 14.3826 69.2649 14.1491L68.7732 14.2402ZM64.677 14.4447H69.019V13.9447H64.677V14.4447ZM64.927 15.2269V14.1947H64.427V15.2269H64.927ZM67.9302 14.9769H64.677V15.4769H67.9302V14.9769ZM67.364 17.1492C67.8652 16.6282 68.1554 15.949 68.18 15.2355L67.6803 15.2183C67.66 15.8064 67.4208 16.3688 67.0036 16.8026L67.364 17.1492ZM62.7472 17.6938C64.2318 18.5329 66.1189 18.3154 67.3547 17.1584L67.013 16.7934C65.9388 17.799 64.2902 17.9916 62.9933 17.2586L62.7472 17.6938ZM60.9953 13.5475C60.5419 15.1553 61.2638 16.8494 62.7466 17.6935L62.9939 17.2589C61.7026 16.5239 61.0881 15.0607 61.4766 13.6832L60.9953 13.5475ZM64.6751 10.8194C62.957 10.8325 61.4481 11.9419 60.9953 13.5475L61.4766 13.6832C61.8657 12.3035 63.1708 11.3309 64.6789 11.3194L64.6751 10.8194ZM67.3122 11.9227C66.6574 11.1737 65.6758 10.7669 64.664 10.8198L64.6901 11.3191C65.5531 11.274 66.3848 11.6215 66.9358 12.2518L67.3122 11.9227ZM67.7421 11.1472L66.9508 11.907L67.2972 12.2676L68.0884 11.5078L67.7421 11.1472ZM66.4219 10.6001C66.9262 10.7956 67.3751 11.1032 67.7298 11.4952L68.1006 11.1597C67.6925 10.7088 67.1782 10.357 66.6026 10.1339L66.4219 10.6001ZM62.2304 10.9683C63.4719 10.1797 65.0454 10.0403 66.4181 10.5985L66.6064 10.1354C65.0851 9.51663 63.3414 9.6703 61.9623 10.5462L62.2304 10.9683ZM60.25 14.5027C60.2487 13.0848 60.9896 11.7563 62.2304 10.9683L61.9623 10.5462C60.5823 11.4226 59.7486 12.9078 59.75 14.5031L60.25 14.5027ZM61.5406 17.4983C60.7114 16.7015 60.2485 15.6239 60.25 14.5032L59.75 14.5026C59.7483 15.7628 60.2691 16.9699 61.1942 17.8588L61.5406 17.4983ZM64.6773 18.7473C63.4983 18.7458 62.3702 18.2954 61.5406 17.4983L61.1942 17.8588C62.1189 18.7473 63.3718 19.2457 64.6767 19.2473L64.6773 18.7473ZM67.7834 17.5445C66.978 18.3489 65.852 18.7881 64.6857 18.7474L64.6683 19.2471C65.97 19.2925 67.2311 18.8027 68.1367 17.8982L67.7834 17.5445ZM75.9127 11.0201H71.8833V11.5201H75.9127V11.0201ZM75.6627 10.2093V11.2701H76.1627V10.2093H75.6627ZM70.6897 10.4593H75.9127V9.95926H70.6897V10.4593ZM70.9397 18.8109V10.2093H70.4397V18.8109H70.9397ZM75.9127 18.5609H70.6897V19.0609H75.9127V18.5609ZM75.6627 17.75V18.8109H76.1627V17.75H75.6627ZM71.8833 18H75.9127V17.5H71.8833V18ZM71.6333 15.0262V17.75H72.1333V15.0262H71.6333ZM75.5537 14.7762H71.8833V15.2762H75.5537V14.7762ZM75.3037 13.994V15.0262H75.8037V13.994H75.3037ZM71.8833 14.244H75.5537V13.744H71.8833V14.244ZM71.6333 11.2701V13.994H72.1333V11.2701H71.6333ZM79.6564 19.0609H80.8051V18.5609H79.6564V19.0609ZM79.4064 11.2701V18.8109H79.9064V11.2701H79.4064ZM77.1511 11.5201H79.6564V11.0201H77.1511V11.5201ZM76.9011 10.2093V11.2701H77.4011V10.2093H76.9011ZM83.3732 9.95926H77.1511V10.4593H83.3732V9.95926ZM83.6232 11.2701V10.2093H83.1232V11.2701H83.6232ZM80.8649 11.5201H83.3732V11.0201H80.8649V11.5201ZM81.1149 18.8109V11.2701H80.6149V18.8109H81.1149ZM80.8051 19.0609H80.8649V18.5609H80.8051V19.0609ZM88.0086 18.8109V10.2093H87.5086V18.8109H88.0086ZM88.9073 18.5609H87.7586V19.0609H88.9073V18.5609ZM88.6573 10.2093V18.8109H89.1573V10.2093H88.6573ZM87.7586 10.4593H88.9073V9.95926H87.7586V10.4593ZM92.8604 19.0609H93.9941V18.5609H92.8604V19.0609ZM92.6104 11.2701V18.8109H93.1104V11.2701H92.6104ZM90.3536 11.5201H92.8604V11.0201H90.3536V11.5201ZM90.1036 10.2093V11.2701H90.6036V10.2093H90.1036ZM96.5009 9.95926H90.3536V10.4593H96.5009V9.95926ZM96.7509 11.2701V10.2093H96.2509V11.2701H96.7509ZM93.9941 11.5201H96.5009V11.0201H93.9941V11.5201ZM94.2441 18.8109V11.2701H93.7441V18.8109H94.2441ZM107.13 16.7953C105.883 17.9888 103.86 17.9888 102.613 16.7953L102.267 17.1564C103.707 18.5351 106.036 18.5351 107.476 17.1564L107.13 16.7953ZM107.121 12.2158C108.351 13.5197 108.351 15.5004 107.121 16.8044L107.485 17.1474C108.896 15.6508 108.896 13.3693 107.485 11.8728L107.121 12.2158ZM102.612 12.2248C103.858 11.0304 105.883 11.0304 107.13 12.2248L107.476 11.8638C106.036 10.4841 103.706 10.4841 102.266 11.8638L102.612 12.2248ZM102.621 16.8044C101.391 15.5004 101.391 13.5197 102.621 12.2158L102.257 11.8728C100.846 13.3693 100.846 15.6508 102.257 17.1474L102.621 16.8044ZM102.44 16.7259H102.439V17.2259H102.44V16.7259ZM111.343 18.8109V10.2093H110.843V18.8109H111.343ZM111.108 18.5609H111.093V19.0609H111.108V18.5609ZM112.257 18.5609H111.108V19.0609H112.257V18.5609ZM112.007 11.8006V18.8109H112.507V11.8006H112.007ZM117.016 18.6748L112.466 11.6645L112.047 11.9367L116.597 18.947L117.016 18.6748ZM118 18.5609H116.806V19.0609H118V18.5609ZM117.75 10.2093V18.8109H118.25V10.2093H117.75ZM116.851 10.4593H118V9.95926H116.851V10.4593ZM117.101 16.9042V10.2093H116.601V16.9042H117.101ZM112.285 10.3456L116.642 17.0406L117.061 16.7678L112.704 10.0729L112.285 10.3456ZM111.093 10.4593H112.494V9.95926H111.093V10.4593Z" fill="white"/>
<path fill-rule="evenodd" clip-rule="evenodd" d="M70.295 34.8637V37.5162H76.7541C76.6529 38.7651 76.1259 39.9438 75.2584 40.8613C73.9533 42.1727 72.1445 42.8795 70.28 42.8065C68.3746 42.8042 66.5482 42.0576 65.2025 40.7311C63.8569 39.4046 63.1022 37.6068 63.1046 35.7331C63.1046 31.8265 66.3177 28.6597 70.28 28.6597C72.0911 28.6385 73.8374 29.3218 75.1385 30.5607L77.0373 28.6892C75.2402 26.9336 72.7979 25.9664 70.265 26.0072C66.6433 25.8702 63.2362 27.6949 61.3887 30.7611C59.5371 33.831 59.5371 37.6499 61.3887 40.7199C63.2362 43.7861 66.6433 45.6108 70.265 45.4738C72.8554 45.5888 75.3694 44.5944 77.1572 42.7476C78.7238 41.0497 79.5597 38.8204 79.489 36.5289C79.4937 35.9704 79.4435 35.4127 79.3392 34.8637H70.295ZM86.8592 32.948C83.3499 32.9683 80.5201 35.7792 80.5351 39.23C80.5417 42.6808 83.3889 45.4746 86.8982 45.4738C90.4075 45.464 93.246 42.6617 93.2419 39.2109C93.267 37.5357 92.5996 35.9222 91.3926 34.7399C90.1873 33.5593 88.5451 32.9122 86.8443 32.948H86.8592ZM94.4512 39.23C94.4363 35.7792 97.2661 32.9683 100.775 32.948H100.774C102.473 32.9162 104.111 33.5652 105.313 34.7458C106.517 35.9274 107.183 37.5384 107.158 39.2109C107.162 42.6611 104.325 45.4632 100.816 45.4738C97.306 45.4754 94.4579 42.6814 94.4512 39.23ZM97.0274 40.8584C97.7078 42.2656 99.1946 43.1202 100.775 43.0128C101.768 42.9899 102.708 42.5732 103.383 41.8575C104.059 41.1409 104.412 40.1868 104.363 39.2109C104.36 37.6515 103.39 36.2518 101.914 35.6801C100.439 35.1105 98.7597 35.4877 97.6823 36.6306C96.6042 37.775 96.3447 39.4502 97.0274 40.8584ZM83.1097 40.8584C83.7904 42.2661 85.2779 43.1208 86.8592 43.0128H86.8443C87.8387 42.9938 88.7829 42.5791 89.4608 41.8634C90.1401 41.1463 90.4957 40.1897 90.4469 39.2109C90.444 37.6511 89.4727 36.2514 87.9967 35.6801C86.5219 35.1112 84.8433 35.4883 83.7661 36.6306C82.6875 37.7747 82.4274 39.4499 83.1097 40.8584ZM132.588 32.9332C135.069 33.0255 137.233 34.6146 138.028 36.9268L138.341 37.5899L129.837 41.0529C130.368 42.2489 131.59 43.0031 132.916 42.9539C134.196 42.956 135.383 42.2954 136.039 41.215L138.206 42.6886C137.029 44.4279 135.041 45.4688 132.916 45.459C131.227 45.4835 129.6 44.8301 128.411 43.6494C127.221 42.4668 126.57 40.8597 126.607 39.1961C126.504 37.5709 127.088 35.976 128.221 34.7885C129.353 33.6021 130.934 32.9303 132.588 32.9332ZM129.359 39.0193C129.297 38.0983 129.613 37.192 130.238 36.5053C130.862 35.8179 131.741 35.4067 132.677 35.3647C133.663 35.3011 134.593 35.8232 135.038 36.691L129.359 39.0193ZM125.231 45.1054H122.436V26.6851H125.231V45.1054ZM117.863 34.3479H117.758C116.907 33.4095 115.689 32.8733 114.41 32.8743C111.012 33.0402 108.345 35.7995 108.349 39.1446C108.345 42.4896 111.012 45.2489 114.41 45.4148C115.693 45.4355 116.919 44.8958 117.758 43.9412H117.848V44.8401C117.848 47.2421 116.547 48.5242 114.453 48.5242C113.027 48.4901 111.763 47.6107 111.255 46.299L108.819 47.301C109.754 49.5487 111.984 51.0124 114.453 50.9998C117.728 50.9998 120.433 49.0989 120.433 44.4717V33.3164H117.788V34.3332L117.863 34.3479ZM114.654 43.012L114.663 43.0128H114.648L114.654 43.012ZM118.062 39.2168C118.06 41.1455 116.6 42.7715 114.654 43.012C112.657 42.8324 111.128 41.1839 111.131 39.2109C111.128 37.2349 112.662 35.5846 114.663 35.4089C116.61 35.6541 118.067 37.2864 118.062 39.2168ZM151.108 26.6851H144.426V45.1054H147.222V38.1204H151.123C153.297 38.2705 155.373 37.2123 156.502 35.3794C157.633 33.5448 157.63 31.2432 156.494 29.4113C155.361 27.5813 153.281 26.5288 151.108 26.6851ZM147.207 35.5268H151.108L151.168 35.5563C152.947 35.5563 154.39 34.1342 154.39 32.3806C154.39 30.627 152.947 29.205 151.168 29.205H147.207V35.5268ZM168.344 32.8743C166.262 32.7533 164.307 33.8592 163.367 35.6889L165.847 36.7057C166.346 35.7981 167.343 35.2662 168.389 35.35C169.106 35.2675 169.827 35.4723 170.388 35.9188C170.951 36.3638 171.308 37.0152 171.378 37.7225V37.9141C170.481 37.4456 169.48 37.2026 168.464 37.2067C165.789 37.2067 163.084 38.6804 163.084 41.3476C163.136 42.497 163.658 43.5757 164.531 44.3391C165.403 45.1024 166.553 45.4855 167.716 45.4001C169.146 45.4839 170.51 44.7949 171.273 43.6023H171.363V45.0759H174.055V38.0172C174.085 34.79 171.603 32.9185 168.42 32.9185L168.345 32.8743H168.344ZM165.819 41.4066C166 42.4192 166.963 43.1094 167.999 42.9686H168.001L168.075 43.0128C169.761 42.9699 171.157 41.7128 171.348 40.0656C170.573 39.6391 169.696 39.4253 168.808 39.4466C167.403 39.4466 165.819 39.9329 165.819 41.4066ZM183.892 33.3164L180.694 41.3034H180.604L177.283 33.3164H174.293L179.272 44.4864L176.432 50.6904H179.347L187 33.3164H183.892ZM161.559 45.1054H158.763V26.6851H161.559V45.1054Z" fill="white"/>
<path d="M13.6816 11.1213C13.2026 11.7139 12.9609 12.4733 13.0052 13.2433V46.7718C12.9609 47.5434 13.2026 48.3028 13.6831 48.8939L13.7863 49L32 30.2198V29.7802L13.7848 11L13.6816 11.1213Z" fill="url(#paint0_linear)"/>
<path d="M39.0978 37L33 30.7205V30.2795L39.0978 24L39.231 24.076L46.4493 28.3029C48.5169 29.5041 48.5169 31.4807 46.4493 32.6971L39.231 36.924L39.0978 37Z" fill="url(#paint1_linear)"/>
<path d="M38.985 36.232L32.6633 30L14 48.4007C14.8811 49.165 16.1913 49.2023 17.1158 48.4893L39 36.232" fill="url(#paint2_linear)"/>
<path d="M39 23.768L17.1158 11.5107C16.1913 10.7977 14.8811 10.835 14 11.5993L32.6798 30L39 23.768Z" fill="url(#paint3_linear)"/>
<path opacity="0.2" d="M38.8648 36L17.1027 48.2919C16.2146 48.9527 14.9932 48.9527 14.1052 48.2919L14 48.3962L14.1052 48.5005C14.9916 49.1665 16.2162 49.1665 17.1027 48.5005L39 36.1341L38.8648 36V36Z" fill="black"/>
<path opacity="0.12" fill-rule="evenodd" clip-rule="evenodd" d="M38.9017 36.2927L46.5098 31.9808C47.2845 31.5839 47.8338 30.8537 48 30C47.9223 30.9504 47.3425 31.7869 46.4793 32.1941L39.0389 36.4298L38.9017 36.2927ZM13.0022 46.9336C13.0274 47.6044 13.2736 48.2513 13.707 48.7715L13.8138 48.8933L13.707 49C13.224 48.4214 12.9742 47.6846 13.0022 46.9336ZM13.0022 46.9336C13.003 46.9114 13.004 46.8891 13.0054 46.8669V46.6383C12.9995 46.7371 12.9985 46.8356 13.0022 46.9336Z" fill="black"/>
<path opacity="0.25" d="M16.8728 11.7006L46.4816 28.0784C47.2659 28.4553 47.8264 29.1648 48 30C47.9224 29.078 47.3435 28.2664 46.4816 27.8715L16.8576 11.4936C14.7316 10.3259 13 11.3015 13 13.6665V13.8882C13.0609 11.5084 14.762 10.5328 16.8728 11.7006Z" fill="white"/>
<defs>
<linearGradient id="paint0_linear" x1="45.9525" y1="-80.4016" x2="-48.6379" y2="-73.9547" gradientUnits="userSpaceOnUse">
<stop stop-color="#00A0FF"/>
<stop offset="0.01" stop-color="#00A1FF"/>
<stop offset="0.26" stop-color="#00BEFF"/>
<stop offset="0.51" stop-color="#00D2FF"/>
<stop offset="0.76" stop-color="#00DFFF"/>
<stop offset="1" stop-color="#00E3FF"/>
</linearGradient>
<linearGradient id="paint1_linear" x1="49.1811" y1="15.0165" x2="13.4674" y2="15.0165" gradientUnits="userSpaceOnUse">
<stop stop-color="#FFE000"/>
<stop offset="0.41" stop-color="#FFBD00"/>
<stop offset="0.78" stop-color="#FFA500"/>
<stop offset="1" stop-color="#FF9C00"/>
</linearGradient>
<linearGradient id="paint2_linear" x1="-1.45866" y1="16.3244" x2="-22.722" y2="77.0751" gradientUnits="userSpaceOnUse">
<stop stop-color="#FF3A44"/>
<stop offset="1" stop-color="#C31162"/>
</linearGradient>
<linearGradient id="paint3_linear" x1="-7.21837" y1="-6.82289" x2="2.27301" y2="20.3063" gradientUnits="userSpaceOnUse">
<stop stop-color="#32A071"/>
<stop offset="0.07" stop-color="#2DA771"/>
<stop offset="0.48" stop-color="#15CF74"/>
<stop offset="0.8" stop-color="#06E775"/>
<stop offset="1" stop-color="#00F076"/>
</linearGradient>
</defs>
</svg>
